<?xml version="1.0" standalone="no"?>
<!DOCTYPE svg PUBLIC "-//W3C//DTD SVG 20010904//EN"
 "http://www.w3.org/TR/2001/REC-SVG-20010904/DTD/svg10.dtd">
<svg version="1.0" xmlns="http://www.w3.org/2000/svg"
 width="1280.000000pt" height="640.000000pt" viewBox="0 0 1280.000000 640.000000"
 preserveAspectRatio="xMidYMid meet">
<metadata>
Created by potrace 1.15, written by Peter Selinger 2001-2017
</metadata>
<g transform="translate(0.000000,640.000000) scale(0.100000,-0.100000)"
fill="#000000" stroke="none">
<path d="M2335 5419 c-360 -23 -797 -95 -1450 -239 -99 -22 -331 -69 -515
-106 -184 -37 -340 -68 -346 -70 -15 -3 -29 -339 -21 -469 13 -200 45 -273
189 -438 245 -281 285 -348 342 -582 128 -521 331 -1112 545 -1584 133 -295
311 -475 636 -642 554 -286 1278 -380 2055 -269 475 69 861 268 1205 621 245
252 440 538 650 954 107 211 139 297 220 600 66 245 100 346 161 470 86 179
138 216 309 223 55 2 161 -1 235 -6 161 -11 191 -23 271 -109 105 -114 171
-251 259 -543 217 -719 484 -1209 851 -1565 174 -168 310 -265 518 -369 406
-204 854 -306 1346 -306 910 0 1659 377 2041 1027 136 230 208 434 354 1003
171 666 214 794 320 950 45 66 126 143 197 188 88 56 88 55 86 422 0 85 0 189
1 230 2 138 -44 177 -257 216 -171 32 -290 60 -572 138 -327 91 -379 103 -654
146 -683 108 -863 125 -1230 117 -488 -11 -826 -59 -1826 -257 -675 -134 -955
-181 -1278 -215 -248 -26 -554 -36 -773 -25 -392 19 -583 48 -1179 180 -550
122 -661 143 -1031 195 -786 109 -1239 140 -1659 114z"/>
</g>
</svg>
